<svg version="1.2" xmlns="http://www.w3.org/2000/svg" viewBox="0 0 400 400" width="400" height="400">
	<title>aws</title>
	<style>
		.s0 { opacity: 1;fill: #ffffff } 
		.s1 { opacity: 1;fill: #fb9b05 } 
		.s2 { opacity: 1;fill: #51555c } 
		.s3 { opacity: 1;fill: #8c8e97 } 
		.s4 { opacity: 1;fill: #fa9f46 } 
		.s5 { opacity: 1;fill: #fac880 } 
		.s6 { opacity: .3;fill: #d5c2ad } 
	</style>
	<g id="Background">
		<path id="Path 0" fill-rule="evenodd" class="s0" d="m308.5 100.6c2.8 0.3 7.5 1 10.5 1.6 3 0.6 7.2 1.9 9.3 2.9 2.8 1.4 3.8 2.7 4.3 5.2 0.3 1.7 0.3 4.2 0 5.5-0.3 1.2-1.3 2.2-2.1 2.2-0.8 0-4.3-1-7.8-2.1-4.1-1.5-8.9-2.2-14.2-2.3-6.1-0.1-9.1 0.4-12.3 1.9q-4.3 2-5.7 5.3c-0.8 1.7-1.5 3.9-1.5 4.7 0 0.8 0.7 2.8 1.5 4.5 0.9 1.7 3.3 3.9 5.8 5.1 2.3 1.2 9.1 3.7 15.2 5.6 6.1 1.9 13 4.8 15.5 6.4 2.5 1.5 5.5 4.3 6.7 6.1 1.2 1.8 2.7 5.4 3.2 8.1 0.7 2.7 0.8 6.5 0.3 9-0.4 2.3-2 6.3-3.5 9-1.5 2.6-4.6 6-7 7.6-2.3 1.5-6.7 3.7-9.7 4.7-4 1.4-8.2 1.9-15.5 1.8-7.7 0-11.8-0.6-17.9-2.5-5.4-1.6-8.5-3.2-9.8-4.9-1.1-1.4-1.9-4.1-1.8-6.2 0-2.1 0.6-4 1.2-4.3 0.7-0.3 4.9 0.6 9.3 2.1 6.4 2.2 9.9 2.7 18 2.8 7.5 0.1 10.7-0.3 13-1.6 1.6-0.9 4-2.7 5.1-4 1.2-1.2 2.4-3.4 2.7-4.8 0.3-1.4 0.1-4-0.4-5.7-0.5-2-2.2-4.1-4.2-5.3-1.7-1.1-8.4-3.7-14.7-5.7-6.3-2-13.1-4.4-15-5.4-1.9-0.9-4.9-3.2-6.6-5.1-1.8-1.8-4-4.9-5-6.8-1.3-2.4-1.8-5.6-1.8-10 0-4.1 0.7-7.7 1.7-9.7 0.9-1.8 3.2-4.8 5-6.5 1.8-1.8 5.4-4.3 8-5.5 2.6-1.3 7.1-2.7 9.9-3.2 2.9-0.5 7.5-0.7 10.3-0.5zm-209.5 0.5c6.9-0.1 11.3 0.4 16 1.8 3.8 1.2 7.8 3.3 9.7 5.1 1.8 1.6 4.5 5.6 6 8.8 2.7 5.6 2.8 6 3.3 31.2 0.5 24.5 0.6 25.7 5.5 36l-2 2.1c-1.1 1.1-3.5 2.9-5.3 4-2.4 1.4-3.7 1.7-5.2 0.9-1.1-0.6-3.3-3.2-8-11l-4.3 3.8c-2.3 2.1-6.5 4.9-9.2 6.2-3.8 1.9-7.1 2.5-14 2.8-7 0.3-10 0-13.5-1.4-2.5-1-6.2-3.4-8.3-5.3-2.1-2-4.6-5.6-5.5-8.1-0.9-2.5-1.6-7.2-1.6-10.5-0.1-3.3 0.7-8 1.6-10.5 1.1-2.9 3.5-6.2 7-9.3 2.9-2.7 7.3-5.4 9.8-6.3 2.5-0.8 7.2-1.7 10.5-2 3.3-0.3 9.6-0.1 14 0.5 4.4 0.7 9.1 1.5 12.8 2.6l-0.4-8.5c-0.3-6-1.1-9.5-2.5-12-1.1-2.1-3.8-4.4-6.4-5.8-4-2.1-5.5-2.3-14-1.9-6.9 0.3-11.5 1.2-17 3.2-4.1 1.4-8.1 2.4-8.8 2.1-0.7-0.4-1.2-2.5-1.2-5.1q0-4.5 1.7-6.1c1-0.9 3.4-2.3 5.3-3.1 1.9-0.8 6-2 9-2.8 3-0.7 9.8-1.4 15-1.4zm-16.7 56.9c-1.6 2.4-2.3 4.9-2.3 7.8 0 2.3 0.7 5.8 1.5 7.7 0.8 2 2.8 4.2 4.5 5 1.7 0.8 5.4 1.5 8.2 1.5 2.9 0 7-0.6 9.2-1.3 2.1-0.6 5.4-2.5 7.4-4.2 1.9-1.6 4.1-4.2 4.8-5.7 0.8-1.6 1.7-5.5 2.1-8.7 0.8-5.9 0.8-6-2-7-1.5-0.6-7.1-1.3-12.5-1.6-7.9-0.4-10.5-0.2-14.1 1.3-2.7 1-5.3 3.1-6.8 5.2z"/>
		<path id="Path 7" class="s0" d="m144.4 104.3c-0.3 0.6 4.7 18.5 11.1 39.7 6.4 21.2 11.9 39.4 12.2 40.5 0.3 1.1 1.1 3 1.9 4.3 1.2 1.9 2.2 2.2 8.6 2.2 4.8 0.1 7.7-0.4 8.5-1.2 0.6-0.7 4.6-16 9-34.1 4.3-18 8-32.7 8.3-32.7 0.3 0 4 14.7 8.3 32.7 4.3 18.1 8.4 33.4 9 34.1 0.8 0.8 3.7 1.3 8.2 1.3 4.4 0 7.5-0.5 8.2-1.3 0.7-0.7 2.6-5.6 4.2-10.8 1.6-5.2 7.4-23.9 12.9-41.5 5.5-17.6 9.8-32.6 9.6-33.3-0.3-0.8-2.7-1.2-7.4-1.2-6.2 0-7.2 0.3-8.4 2.2-0.7 1.3-5 16.9-9.6 34.8-4.5 17.9-8.5 32.8-8.9 33.2-0.3 0.4-4.3-14.9-8.9-34-4.5-19.1-8.8-35-9.5-35.4-0.6-0.4-4.1-0.8-7.7-0.8-4.1-0.1-6.9 0.4-7.7 1.2-0.7 0.7-4.6 15.9-8.8 33.8-4.2 17.9-7.8 33.2-8.1 34-0.2 0.8-0.6 1.3-0.9 1-0.2-0.3-4.3-15.6-9-34-4.7-18.4-9.1-34.1-9.8-34.8-0.7-0.8-3.7-1.3-8-1.2-4.4 0-6.9 0.4-7.3 1.2z"/>
		<path id="Path 1" class="s1" d="m319 213.4c-0.3 0.3-2.1 0.7-4 1-1.9 0.2-5.8 1.2-8.5 2.2-2.8 0.9-6.5 2.5-8.3 3.6-1.7 1-3.2 2.5-3.2 3.3 0 1.3 1.3 1.4 8.3 0.9 4.5-0.3 11.8-0.7 16.2-0.9 4.4-0.1 9.6 0.3 11.5 0.9 2.2 0.7 3.9 2.1 4.6 3.8 0.9 2 0.9 4.5 0.2 9-0.6 3.5-2.5 10.4-4.3 15.3-1.9 4.9-3.1 9.4-2.7 9.8 0.4 0.4 0.1 0.7-0.5 0.7-0.7 0-1.3 0.9-1.3 2 0 1.1 0.6 2 1.3 2 0.6 0.1 2.8-1.6 4.7-3.7 1.9-2.1 5-6.1 6.7-8.8 1.8-2.8 4.4-8.2 5.7-12 1.4-3.9 3-10 3.5-13.8 0.6-3.7 0.9-7.8 0.6-9.2-0.3-1.5-1.8-3.2-3.7-4.2-2.4-1.2-6.7-1.8-14.8-2.1-6.3-0.2-11.7-0.2-12 0.2zm-268.3 6.3c-0.3 0.5-0.3 1.4 0.1 2.2 0.4 0.8 4.1 4.1 8.2 7.3 4.1 3.2 8.1 6.4 8.9 7.1 0.8 0.6 4.6 3.3 8.5 5.9 3.9 2.7 7.7 4.8 8.4 4.8 0.6 0 1.3 0.4 1.5 0.9 0.1 0.5 4 2.9 8.7 5.4 4.7 2.5 12.3 6.2 17 8.2 4.7 2 9.2 3.7 10 3.9 0.8 0.1 2.4 0.7 3.5 1.3 1.1 0.6 6.1 2.2 11 3.7 5 1.4 12.4 3.2 16.5 4.1 4.1 0.8 7.7 1.3 8 1 0.3-0.2 1.3 0 2.3 0.5 0.9 0.6 5.2 1.3 9.5 1.7 4.2 0.5 16 0.8 26.2 0.7 10.2 0 21.9-0.3 26-0.6 4.1-0.2 8.2-0.8 9-1.3 0.8-0.4 2.9-0.9 4.5-1.1 1.7-0.1 4.1-0.5 5.5-0.9 1.4-0.3 3.4-0.8 4.5-0.9 1.1-0.2 4-0.8 6.5-1.4 2.5-0.6 8.3-2.3 13-3.8 4.7-1.4 10.3-3.4 12.5-4.4 2.2-1 6.2-2.6 8.8-3.7 2.6-1 4.8-2.1 4.7-2.6 0-0.4 0.3-0.5 0.8-0.2 0.4 0.2 4.6-1.8 9.5-4.5 4.8-2.8 9.2-5 9.7-5 0.6 0 1.1-0.4 1.3-0.8 0.1-0.4 1.9-2.1 4-3.7 2.1-1.7 3.8-3.8 3.7-4.8 0-0.9-0.6-2-1.2-2.4-0.7-0.4-1.7-0.8-2.3-1-0.5-0.1-4.9 1.4-9.7 3.3-4.9 1.9-8.8 3.2-8.8 2.9 0-0.3-1.6 0.4-3.5 1.5-1.9 1.1-3.3 1.6-3 1 0.3-0.6-0.7-0.4-2.2 0.4-1.6 0.8-10.4 3.3-19.8 5.6-9.4 2.3-17.9 4.3-19 4.5-1.1 0.1-4.2 0.5-7 0.9-2.7 0.4-7 0.9-9.5 1.2-2.5 0.3-9.9 0.9-16.5 1.5-6.6 0.5-18.7 0.8-27 0.5-8.2-0.3-18.3-1-22.2-1.6-4-0.5-7.7-0.8-8.3-0.5-0.5 0.3-2 0.1-3.2-0.4-1.3-0.5-6.6-1.7-11.8-2.6-5.2-1-14-2.9-19.5-4.2-5.5-1.4-10.4-2.6-11-2.8-0.5-0.1-1.7-0.5-2.5-0.8-0.8-0.4-4.2-1.5-7.5-2.6-3.3-1-9.6-3.3-14-5.1-4.4-1.8-8.4-3.3-9-3.4-0.5-0.1-2.5-1-4.2-1.9-1.8-0.9-3.3-1.4-3.3-1 0 0.5-0.7 0-1.6-1-1-1-2.5-1.9-3.6-2-1-0.1-1.8-0.5-1.8-1 0-0.4-0.4-0.5-1-0.2-0.5 0.3-1.1 0.1-1.2-0.3-0.2-0.5-3.4-2.5-7.3-4.5-3.8-2.1-7.5-3.7-8.1-3.7-0.6 0-1.3 0.3-1.7 0.7z"/>
		<path id="Path 2" class="s2" d="m305.5 113.7c1.1 0.2 3.1 0.2 4.5 0 1.4-0.2 0.5-0.4-2-0.4-2.5 0-3.6 0.2-2.5 0.4z"/>
		<path id="Path 3" class="s3" d="m95.5 100.7c1.7 0.2 4.8 0.2 7 0 2.2-0.2 0.8-0.4-3-0.4-3.8 0-5.7 0.2-4 0.4zm204.3 80c1.3 0.2 3.1 0.2 4 0 0.9-0.3-0.1-0.5-2.3-0.4-2.2 0-3 0.2-1.7 0.4z"/>
		<path id="Path 4" class="s4" d="m326 212.7c1.4 0.2 3.9 0.2 5.5 0 1.6-0.2 0.5-0.4-2.5-0.4-3 0-4.4 0.2-3 0.4zm20 2.8c1.4 0.7 2.8 2.2 3.2 3.2 0.6 1.7 0.7 1.7 0.7 0.1 0.1-1-0.9-2.5-2.2-3.3-1.2-0.8-2.6-1.5-3.2-1.5-0.6 0.1 0.1 0.7 1.5 1.5zm-28.5 8.2c1.1 0.2 3.1 0.2 4.5 0 1.4-0.2 0.5-0.4-2-0.4-2.5 0-3.6 0.2-2.5 0.4zm-121 35c3.3 0.2 8.9 0.2 12.5 0 3.6-0.2 0.9-0.3-6-0.3-6.9 0-9.8 0.1-6.5 0.3zm-1.5 21c1.9 0.2 5.3 0.2 7.5 0 2.2-0.2 0.6-0.4-3.5-0.4-4.1 0-5.9 0.2-4 0.4z"/>
		<path id="Path 5" class="s5" d="m318.8 212.7c1.3 0.2 3.1 0.2 4 0 0.9-0.3-0.1-0.5-2.3-0.4-2.2 0-3 0.2-1.7 0.4zm-20 13c1.3 0.2 3.1 0.2 4 0 0.9-0.3-0.1-0.5-2.3-0.4-2.2 0-3 0.2-1.7 0.4zm-117.3 32c1.1 0.2 3.1 0.2 4.5 0 1.4-0.2 0.5-0.4-2-0.4-2.5 0-3.6 0.2-2.5 0.4zm38 0c1.1 0.2 3.1 0.2 4.5 0 1.4-0.2 0.5-0.4-2-0.4-2.5 0-3.6 0.2-2.5 0.4zm-38 22c1.1 0.2 3.1 0.2 4.5 0 1.4-0.2 0.5-0.4-2-0.4-2.5 0-3.6 0.2-2.5 0.4zm30.9 0c1.6 0.2 3.9 0.2 5 0 1.2-0.2-0.2-0.4-2.9-0.4-2.8 0-3.7 0.2-2.1 0.4z"/>
		<path id="Path 6" class="s6" d="m134.3 136.5c0 2.4 0.1 3 0.4 1.5 0.2-1.4 0.2-3.2 0-4-0.3-0.8-0.5 0.3-0.4 2.5z"/>
		<path id="Path 8" class="s3" d="m176 191.7c1.9 0.2 4.6 0.2 6 0 1.4-0.2-0.2-0.4-3.5-0.4-3.3 0-4.4 0.2-2.5 0.4zm49.5 0c1.7 0.2 4.8 0.2 7 0 2.2-0.2 0.8-0.4-3-0.4-3.8 0-5.7 0.2-4 0.4z"/>
		<path id="Path 9" class="s6" d="m151.5 102.7c1.1 0.2 3.1 0.2 4.5 0 1.4-0.2 0.5-0.4-2-0.4-2.5 0-3.6 0.2-2.5 0.4z"/>
	</g>
</svg>