<svg version="1.2" xmlns="http://www.w3.org/2000/svg" viewBox="0 0 481 463" width="481" height="463">
	<title>docker</title>
	<style>
		.s0 { opacity: .98;fill: #099cec } 
	</style>
	<path id="Path 0" fill-rule="evenodd" class="s0" d="m371.2 124l7.5 5.3c4.2 2.8 11 8.8 15.1 13.2 4.8 5.2 8.7 10.7 11.1 15.5 2.1 4.1 4.4 10 6.3 18.5l6.7-0.8c3.6-0.5 10.9-0.6 16.1-0.2 5.2 0.3 12.4 1.3 16 2.1 3.6 0.8 9 2.8 12 4.5 3 1.6 6.8 3.9 11.3 7.4l-5.4 10.5c-3.9 7.6-7 12.1-11.4 16.5-3.4 3.3-9.2 7.6-13 9.7-3.9 2-10.4 4.6-14.5 5.7-4.1 1-12 2.2-27.5 3.3l-5 10.6c-2.8 5.9-7.9 15.4-11.3 21.2-3.4 5.8-9.7 15.2-14 21-4.3 5.8-12.3 15.2-17.7 20.9-5.5 5.7-14.5 14-20 18.4-5.5 4.4-14.1 10.7-19 13.9-4.9 3.2-13.7 8.3-19.5 11.2-5.8 3-15.7 7.4-22 9.9-6.3 2.6-17.3 6.2-24.5 8.2-7.1 1.9-17.7 4.4-23.5 5.5-5.8 1.1-16.8 2.7-24.5 3.5-7.7 0.8-22.6 1.5-33 1.5-10.4 0-22.8-0.5-27.5-1-4.7-0.6-12.1-1.8-16.5-2.6-4.4-0.9-12.3-3-17.5-4.6-5.2-1.7-13.1-4.7-17.5-6.8-4.4-2.1-12-6.5-17-9.8-4.9-3.3-12.4-9.3-16.6-13.3-4.1-4.1-10.2-11-13.4-15.4-3.3-4.4-8.1-12.1-10.7-17-2.6-4.9-6.2-13.1-8.1-18-2-4.9-4.7-14.4-6.2-21-2-8.9-2.9-15.8-3.3-26.5-0.2-8-0.2-17.5 0.8-28h157.8c96.5 0 160.8-0.4 165.7-1 4.4-0.5 11.4-2.1 15.5-3.5 4.1-1.4 7.7-2.8 8-3 0.3-0.3-0.5-2.2-1.7-4.3-1.2-2-3.1-7.1-4.2-11.2-1.5-5.4-2.1-10.4-2.1-18 0-5.8 0.7-13.4 1.4-17 0.8-3.6 2.6-9.4 4-13 1.5-3.6 4.9-10 7.7-14.2zm-154.2-65.1h48v44h-48zm-113 52h48.9l-0.4 43.5h-48zm57.4 0h47.7v44h-47.5l-0.7-11.2c-0.4-6.2-0.5-16.1-0.2-22zm55.8 0h48v44h-48zm-169 52h48.9l-0.4 42.5-48.5 0.5zm56 0h49v43h-49zm57.2 0h47.8v43h-47.5l-0.8-10.8c-0.3-5.9-0.4-15.6-0.1-21.5zm55.8 0h48v43h-48zm56 0h48v43h-48z"/>
</svg>