<svg version="1.2" xmlns="http://www.w3.org/2000/svg" viewBox="0 0 360 373" width="360" height="373">
	<title>laravel</title>
	<style>
		.s0 { opacity: .99;fill: #fe3428 } 
	</style>
	<path id="Path 0" fill-rule="evenodd" class="s0" d="m75.5 1.1c1.1-0.1 10.8 5 21.5 11.2 10.7 6.3 26.5 15.3 35 20.2 8.5 4.8 16.3 9.7 17.3 10.9 1.7 2 1.8 6.4 1.7 151.6l5.8-3.3c3.3-1.7 16.1-9 51.2-29.2v-77.5l2.2-2.4c1.3-1.3 10.4-7 20.3-12.6 9.9-5.6 25.8-14.7 35.2-20.1 9.5-5.5 17.9-9.9 18.5-9.9 0.7 0.1 12.3 6.4 25.8 14.2 13.5 7.8 29.2 16.8 35 20.1 5.8 3.3 11.5 7 15 10.7v40.8c0 32.4-0.3 41.1-1.3 42.7-0.8 1.1-16.5 10.8-68.7 41l-0.5 78.9-4 2.7c-2.2 1.4-19.3 11.4-38 22.1-18.7 10.7-49 28.1-67.3 38.7-18.2 10.5-34.1 19.1-35.2 19.1-1.1 0-24.8-13.1-52.8-29.2-27.9-16-59.7-34.3-70.7-40.6-11-6.3-20.3-11.9-20.7-12.6-0.4-0.6-0.8-55.8-0.8-122.6-0.1-115.3 0-121.6 1.7-123.1 1-0.9 12.6-7.9 25.8-15.5 13.2-7.5 28.9-16.6 35-20 6-3.5 11.9-6.3 13-6.3zm-56.5 46.1c0 0.5 4.4 3.2 9.7 6.2 5.4 2.9 18.1 10.1 28.3 16l18.5 10.6c43.8-25.2 56.5-32.7 56.5-33 0-0.3-2.4-1.8-5.3-3.4-2.8-1.6-15.3-8.8-27.7-15.9-12.4-7.2-23-13.1-23.5-13.2-0.6-0.2-13.5 7-28.8 15.9-15.2 8.8-27.7 16.4-27.7 16.8zm208.6 38.8c-0.3 0.3 12.2 7.8 27.7 16.8 15.5 8.9 28.5 16.2 29 16.2 0.4 0 10.5-5.7 22.5-12.6 11.9-7 24.5-14.3 27.9-16.3 3.5-2 5.9-3.9 5.5-4.2-0.4-0.4-13-7.7-27.9-16.3-15-8.6-27.9-15.6-28.5-15.5-0.7 0-13.5 7.1-28.5 15.7-14.9 8.6-27.4 15.9-27.7 16.2zm-215.6 196c10.5 5.7 27.7 15.5 45 25.5 17.3 10 42.6 24.5 56.3 32.3 13.6 7.8 24.9 14.2 25.2 14.2 0.3 0 0.5-14.7 0.5-32.8l-0.1-32.7c-49.9-27.9-65.6-37-67.1-38.3l-2.8-2.2v-157.5c-43-24.7-55.8-32-56.1-32.2-0.4-0.2-0.7 50-0.8 111.6zm92-204.3l-21.5 12.4c-0.8 111.9-0.9 144.6-0.7 144.7 0.1 0.1 9.3-5 20.5-11.4 11.1-6.5 23.8-13.8 28.2-16.4l8-4.6c0.4-111.9 0.2-144.3-0.2-144.3-0.5 0-3.5 1.6-6.8 3.6-3.3 2-15.7 9.2-27.5 16zm117 84.8c39 22.5 51.9 29.8 53.7 30.8l3.3 1.7-0.5-65.2c-19.4-11.2-32.2-18.5-41-23.6-8.8-5.1-16-9.2-16-9.2 0 0 0.1 14.8 0.3 32.8zm77.5-37.5l-8.9 5.1 0.3 64.9c4.3-2.2 15.2-8.4 27-15.2 11.9-6.9 23.5-13.6 25.8-14.9l4.2-2.4c0.4-50.8 0.3-65.5 0-65.4-0.2 0.1-9.2 5.2-20 11.5-10.7 6.2-23.5 13.6-28.4 16.4zm-174.3 99.7c-19.9 11.4-35.8 21.1-35.5 21.5 0.4 0.3 13.2 7.6 28.5 16.2l27.7 15.6c95.8-54.5 124.1-70.8 124.8-71.4 1-0.9-5-4.8-26.4-17.1-15.2-8.8-28.2-16.1-28.8-16.2-0.6-0.1-13 6.8-27.6 15.2-14.5 8.5-42.7 24.8-62.7 36.2zm26.8 63.8c0 50.8 0.2 65.5 0.4 65.5 0.3 0 16-8.9 34.8-19.7 18.8-10.8 41-23.5 49.2-28.3 8.3-4.8 21.2-12.2 28.8-16.6l13.8-7.9c-0.1-50.8-0.2-65.5-0.3-65.4-0.1 0.1-28.7 16.4-63.5 36.3z"/>
</svg>