<svg version="1.2" xmlns="http://www.w3.org/2000/svg" viewBox="0 0 360 360" width="360" height="360">
	<title>nodejs</title>
	<style>
		.s0 { fill: #569f46 } 
	</style>
	<path id="Path 0" fill-rule="evenodd" class="s0" d="m182 18.4c6 0.5 7.7 1.2 22 9.5 8.5 4.9 34.6 20 58 33.4 23.4 13.5 45.2 26.3 48.5 28.4 3.3 2.1 7.2 5.6 8.7 7.8 1.5 2.2 3.2 6.5 3.8 9.5 0.6 3.4 1 31.8 1 74 0 56.5-0.2 69.4-1.4 73.5-0.8 2.8-2.9 7-4.8 9.3-2.7 3.6-8.3 7.3-32.8 21.4-16.2 9.3-34 19.6-39.5 22.8-5.5 3.2-18.3 10.6-28.5 16.5-10.2 5.9-21.2 12.2-24.4 13.9-5.1 2.6-7.1 3.1-20.1 3.1l-24-14.2c-13.2-7.7-24.1-14.6-24.3-15.2-0.1-0.6 1-1.6 2.5-2.2 1.6-0.6 6.5-2.9 19.3-8.9l16.2 9.5c9 5.2 17 9.5 17.8 9.4 0.8 0 19.5-10.4 41.5-23.1 22-12.7 48.6-28.1 59-34.1 10.4-6 19.6-11.4 20.3-12.1 1-0.9 1.3-15 1.3-70.6 0-65.4-0.1-69.6-1.8-71.1-1-0.9-18.9-11.4-39.8-23.4-20.9-12-47.2-27.2-58.5-33.7-11.3-6.5-21.2-11.8-22-11.8-0.8 0-8.3 3.9-16.5 8.6-8.3 4.7-34.1 19.7-57.5 33.2-23.4 13.5-43.7 25.3-48 28.2l0.5 140.5 17.5 10.1c9.6 5.6 19.1 10.7 21 11.3 1.9 0.6 5.4 1.1 7.7 1.1 2.4 0 5.5-0.6 7-1.4 1.6-0.8 3.9-2.6 7.8-6.8l0.2-71.1c0.3-66.4 0.4-71.3 2-72.7 1.4-1.3 3.8-1.5 10.8-1.3 5.7 0.2 9.3 0.8 9.8 1.6 0.4 0.7 0.6 34 0.4 74.2-0.2 62.5-0.5 73.6-1.8 77.5-0.8 2.5-2.9 6.5-4.6 9-1.7 2.5-4.8 5.7-6.9 7.2-2.2 1.6-6.2 3.5-8.9 4.3-2.8 0.9-8.9 1.6-14 1.6-7.4 0-10.3-0.4-16-2.6-3.9-1.4-15-7.2-24.8-12.8-9.8-5.6-19.3-11.4-21-12.8-1.8-1.5-4.3-4.8-8.2-12.4v-149l2.2-4.5c1.2-2.5 3.5-5.7 5-7.2 1.5-1.4 9.3-6.4 17.3-11.1 8-4.6 35.4-20.5 61-35.3 25.6-14.7 48.1-27.4 50-28.1 2.2-0.8 6-1.2 10-0.9zm34 98.1c8.1 0.2 16.3 1 20.5 2 3.8 0.9 9.6 3 12.7 4.6 3.2 1.6 7.6 4.6 9.9 6.6 2.2 2.1 5.4 6.5 7 9.8 1.6 3.3 3.5 9 4.2 12.6 1 5.7 1 6.9-0.3 8.3-1.2 1.3-3.3 1.7-10 1.7-5.7 0-8.9-0.4-9.7-1.3-0.6-0.7-2-3.8-3.2-6.8-1.2-3.5-3.4-6.8-6-9.3-2.6-2.4-6.2-4.3-9.9-5.4-4.1-1.2-9.4-1.7-19.2-1.7-11.3 0-14.4 0.4-19 2.1-3 1.2-6.7 3.5-8.3 5.2-2.2 2.5-2.7 4.1-2.7 8.3-0.1 3.8 0.4 5.8 1.7 7 1 1 4.5 2.6 7.8 3.7 3.3 1.1 14.1 3.1 24 4.5 9.9 1.5 21.4 3.4 25.5 4.2 4.1 0.9 9.7 2.4 12.5 3.5 2.7 1 7.1 3.2 9.7 4.9 2.7 1.7 6.1 5.1 7.8 7.7 1.7 2.7 3.5 7.3 4.1 10.3 0.6 3 0.9 8.1 0.5 11.2-0.3 3.2-1.6 8.4-2.8 11.5-1.4 3.8-3.9 7.5-7 10.5-2.7 2.8-7.9 6.3-12.1 8.3-3.9 1.9-10.4 4.2-14.2 5-3.9 0.8-11.7 1.8-17.5 2.1-5.9 0.4-14.5 0.2-19.5-0.5-4.9-0.6-11.7-1.8-15-2.7-3.3-0.8-8.4-2.7-11.4-4.2-3-1.5-7.8-4.8-10.5-7.3-3.4-3.1-6.1-6.7-8-11-1.9-4.1-3.1-8.9-3.5-13.2-0.5-5.4-0.3-7 0.9-7.7 0.8-0.5 5.3-1 10-1 5.7-0.1 8.9 0.3 9.7 1.2 0.7 0.7 1.5 2.9 1.9 4.8 0.4 1.9 1.5 5.1 2.4 7 1 1.9 2.9 4.5 4.2 5.6 1.2 1.2 3.6 2.8 5.3 3.6 1.6 0.9 5.5 2.1 8.5 2.8 3.2 0.7 11.6 1.2 20 1.2 11.6 0 15.8-0.5 21-2.1 3.9-1.2 7.6-3.1 9.2-4.8 1.5-1.5 3.2-4 3.7-5.6 0.6-1.5 1.1-4.2 1.1-6 0-1.7-0.7-4.2-1.5-5.5-0.8-1.2-3.3-3.1-5.5-4.2-2.2-1.1-7.3-2.7-11.3-3.5-3.9-0.9-14.4-2.4-23.2-3.5-8.8-1.1-19.4-2.8-23.5-3.9-4.1-1-9.5-2.9-12-4.1-2.5-1.2-6.2-3.9-8.3-5.9-2.1-2-4.8-5.4-6-7.6-1.9-3.4-2.2-5.6-2.2-15 0-10.4 0.2-11.3 3-16.4 1.7-3 5.2-7.4 8-9.8 3.2-2.8 7.8-5.5 12.5-7.3 4.1-1.6 10.4-3.3 14-3.9 3.6-0.5 12.6-0.8 20-0.6z"/>
</svg>